<svg width="375" height="173" viewBox="0 0 375 173" fill="none" xmlns="http://www.w3.org/2000/svg">
<g opacity="0.3" filter="url(#filter0_f_1_1551)">
<path d="M360.051 166.298C358.235 166.541 356.389 166.747 354.514 166.918C345.719 167.717 336.5 167.659 327.852 166.751C319.966 165.923 312.285 164.458 304.365 162.271C297.878 160.48 291.173 158.177 283.869 155.23C266.859 148.365 251.675 140.211 236.99 132.325C228.727 127.888 220.182 123.299 211.407 118.99C192.382 109.651 162.626 96.7976 124.025 93.0295C81.0677 88.8369 28.6427 95.8462 -23.5944 112.767C-70.2483 127.879 -110.512 148.363 -149.452 168.173L-149.895 167.939C-110.92 148.111 -70.6177 127.609 -23.8813 112.47C-12.0387 108.633 0.100493 105.238 12.2014 102.379C24.8567 99.3879 37.5231 96.9713 49.8489 95.1952C76.724 91.3236 101.765 90.4744 124.278 92.6719C132.678 93.4914 141.095 94.7782 149.296 96.4959C156.882 98.0844 164.546 100.097 172.074 102.478C184.961 106.554 198.002 111.862 211.941 118.705C220.726 123.017 229.274 127.609 237.541 132.049C252.212 139.928 267.383 148.075 284.365 154.927C300.289 161.353 313.783 164.89 328.115 166.394C346.429 168.316 365.521 166.42 380.497 161.189C402.628 153.46 411.998 140.25 415.614 133.064C419.18 125.976 420.588 118.767 421.951 111.794C422.636 108.283 423.347 104.653 424.323 101.077C430.094 79.9429 445.781 58.5979 469.693 39.3499C489.743 23.2098 511.865 12.4317 535.445 7.31387C549.057 4.35981 564.298 3.65075 577.262 5.36804C591.047 7.1942 600.802 11.529 604.73 17.5728L604.056 17.746C595.554 4.66312 561.797 1.96196 535.604 7.64623C512.197 12.7266 490.214 23.4443 470.266 39.5015C446.42 58.6964 430.776 79.9825 425.021 101.058C424.047 104.626 423.338 108.253 422.653 111.76C421.289 118.747 419.877 125.971 416.295 133.088C413.434 138.776 409.026 144.224 403.547 148.846C397.247 154.159 389.597 158.409 380.808 161.479C374.501 163.682 367.539 165.297 360.051 166.299L360.051 166.298Z" stroke="url(#paint0_linear_1_1551)" stroke-width="2"/>
</g>
<defs>
<filter id="filter0_f_1_1551" x="-155.068" y="0.448242" width="764.395" height="171.851" filterUnits="userSpaceOnUse" color-interpolation-filters="sRGB">
<feFlood flood-opacity="0" result="BackgroundImageFix"/>
<feBlend mode="normal" in="SourceGraphic" in2="BackgroundImageFix" result="shape"/>
<feGaussianBlur stdDeviation="1.5" result="effect1_foregroundBlur_1_1551"/>
</filter>
<linearGradient id="paint0_linear_1_1551" x1="-613.52" y1="68.871" x2="88.1499" y2="806.368" gradientUnits="userSpaceOnUse">
<stop offset="0.41" stop-color="#04F06A"/>
<stop offset="0.68" stop-color="white"/>
<stop offset="1" stop-color="white"/>
</linearGradient>
</defs>
</svg>
