<svg width="3219" height="952" viewBox="0 0 3219 952" fill="none" xmlns="http://www.w3.org/2000/svg">
<g opacity="0.3" filter="url(#filter0_f_2028_4)">
<path d="M1018.55 384.356C1200.86 325.33 1383.82 300.878 1533.73 315.504C1668.45 328.649 1772.3 373.486 1838.69 406.066C1869.31 421.095 1899.14 437.104 1927.97 452.584C1979.22 480.093 2032.21 508.539 2091.58 532.484C2117.07 542.767 2140.47 550.801 2163.11 557.049C2190.75 564.677 2217.55 569.789 2245.07 572.675C2275.26 575.843 2307.43 576.044 2338.12 573.257C2344.67 572.664 2351.11 571.942 2357.45 571.094L2357.45 571.099C2383.58 567.604 2407.88 561.969 2429.89 554.286C2460.56 543.576 2487.26 528.749 2509.24 510.214C2528.37 494.093 2543.75 475.086 2553.73 455.246C2566.23 430.419 2571.16 405.217 2575.92 380.843C2578.31 368.61 2580.79 355.957 2584.19 343.51C2604.27 269.99 2658.87 195.735 2742.09 128.775C2811.71 72.7606 2888.42 35.3728 2970.11 17.6503C3061.53 -2.17891 3179.33 7.24389 3209.01 52.8825L3211.36 52.2782C3197.65 31.195 3163.61 16.0734 3115.5 9.70296C3070.25 3.71231 3017.06 6.18579 2969.56 16.4908C2887.27 34.344 2810.06 71.9425 2740.09 128.246C2656.64 195.391 2601.89 269.852 2581.75 343.577C2578.34 356.051 2575.87 368.714 2573.47 380.962C2568.72 405.285 2563.8 430.436 2551.36 455.16C2538.74 480.228 2506.04 526.309 2428.8 553.274C2376.54 571.52 2309.9 578.137 2245.99 571.431C2195.97 566.183 2148.88 553.846 2093.31 531.43C2034.04 507.527 1981.1 479.104 1929.89 451.619C1901.04 436.13 1871.21 420.114 1840.55 405.071C1791.91 381.199 1746.4 362.683 1701.42 348.464C1675.15 340.158 1648.4 333.138 1621.93 327.596C1593.31 321.604 1563.93 317.115 1534.62 314.256C1456.05 306.59 1368.66 309.553 1274.86 323.059C1231.85 329.254 1187.64 337.685 1143.48 348.118C1101.25 358.093 1058.88 369.937 1017.55 383.319C854.446 436.13 141.197 876.197 5.17767 945.364" stroke="url(#paint0_linear_2028_4)" stroke-width="4"/>
</g>
<defs>
<filter id="filter0_f_2028_4" x="0.270996" y="0.494141" width="3218.28" height="950.653" filterUnits="userSpaceOnUse" color-interpolation-filters="sRGB">
<feFlood flood-opacity="0" result="BackgroundImageFix"/>
<feBlend mode="normal" in="SourceGraphic" in2="BackgroundImageFix" result="shape"/>
<feGaussianBlur stdDeviation="2" result="effect1_foregroundBlur_2028_4"/>
</filter>
<linearGradient id="paint0_linear_2028_4" x1="-1040.24" y1="231.228" x2="1407.43" y2="2804.98" gradientUnits="userSpaceOnUse">
<stop offset="0.41" stop-color="#04F06A"/>
<stop offset="0.68" stop-color="white"/>
<stop offset="1" stop-color="white"/>
</linearGradient>
</defs>
</svg>
